# MagicaVoxel @ Ephtracy

# group
o 

# material
mtllib Spirit's Covenant Background.mtl
usemtl palette

# normals
vn -1 0 0
vn 1 0 0
vn 0 0 1
vn 0 0 -1
vn 0 -1 0
vn 0 1 0

# texcoords
vt 0.373047 0.5
vt 0.509766 0.5
vt 0.537109 0.5
vt 0.794922 0.5
vt 0.837891 0.5
vt 0.912109 0.5
vt 0.962891 0.5
vt 0.970703 0.5

# verts
v -2 0 2
v -2 0 -2
v -2 0.2 2
v -2 0.2 -2
v -2 4 2
v -2 4 -2
v -1.5 1.3 -0.8
v -1.5 1.3 -1.9
v -1.5 2 -0.8
v -1.5 2 -1.9
v -1.4 1.3 -0.7
v -1.4 1.3 -0.8
v -1.4 1.8 -0.7
v -1.4 1.8 -0.8
v -1.2 0.3 -1
v -1.2 0.3 -1.3
v -1.2 1.2 -0.9
v -1.2 1.2 -1
v -1.2 1.3 -0.9
v -1.2 1.3 -1
v -1.2 1.3 -1.3
v -1.1 1.2 -0.8
v -1.1 1.2 -0.9
v -1.1 1.3 -0.8
v -1.1 1.3 -0.9
v 0.8 0.3 -0.8
v 0.8 0.3 -1
v 0.8 0.5 -0.8
v 0.8 0.5 -1
v 0.9 0.3 -1
v 0.9 0.3 -1.3
v 0.9 0.5 -0.8
v 0.9 0.5 -1
v 0.9 0.6 -1.2
v 0.9 0.6 -1.3
v 0.9 0.7 -0.8
v 0.9 0.7 -1.2
v 1.1 0.3 -0.7
v 1.1 0.3 -0.8
v 1.1 0.6 -0.7
v 1.1 0.6 -0.8
v 1.9 0.3 2
v 1.9 0.3 1.6
v 1.9 0.3 0.7
v 1.9 0.3 -1.9
v 1.9 4 2
v 1.9 4 -1.9
v -1.9 0.3 2
v -1.9 0.3 0.8
v -1.9 0.3 0.0999999
v -1.9 0.3 -1.9
v -1.9 4 2
v -1.9 4 -1.9
v -1.1 1.7 -1.7
v -1.1 1.7 -1.9
v -1.1 1.8 -0.8
v -1.1 1.8 -1
v -1.1 1.9 -1
v -1.1 1.9 -1.7
v -1.1 2 -0.8
v -1.1 2 -1.9
v -0.9 0.3 -1
v -0.9 0.3 -1.3
v -0.9 1.2 -1
v -0.9 1.2 -1.1
v -0.9 1.3 -1.1
v -0.9 1.3 -1.3
v -0.7 1.2 -0.8
v -0.7 1.2 -1.1
v -0.7 1.3 -0.8
v -0.7 1.3 -1.1
v -0.6 1.3 -0.7
v -0.6 1.3 -1.9
v -0.6 1.4 -1
v -0.6 1.4 -1.7
v -0.6 1.7 -1.7
v -0.6 1.7 -1.9
v -0.6 1.8 -0.7
v -0.6 1.8 -1
v -0.5 1.4 -1
v -0.5 1.4 -1.7
v -0.5 1.9 -1
v -0.5 1.9 -1.7
v 1.2 0.5 -0.9
v 1.2 0.5 -1
v 1.2 0.6 -0.9
v 1.2 0.6 -1
v 1.3 0.4 -1.2
v 1.3 0.4 -1.3
v 1.3 0.5 -1
v 1.3 0.5 -1.2
v 1.3 0.6 -0.8
v 1.3 0.6 -0.9
v 1.3 0.6 -1
v 1.3 0.6 -1.2
v 1.3 0.6 -1.3
v 1.3 0.7 -0.8
v 1.3 0.7 -1.2
v 1.4 0.3 -0.7
v 1.4 0.3 -1.3
v 1.4 0.4 -1.2
v 1.4 0.4 -1.3
v 1.4 0.5 -0.9
v 1.4 0.5 -1.2
v 1.4 0.6 -0.7
v 1.4 0.6 -0.9
v 2 0 2
v 2 0 -2
v 2 0.2 2
v 2 0.2 -2
v 2 4 2
v 2 4 -2
v -2 0 2
v -2 0.2 2
v -2 4 2
v -1.9 0.2 2
v -1.9 0.3 2
v -1.9 4 2
v 1.9 0.2 2
v 1.9 0.3 2
v 1.9 4 2
v 2 0 2
v 2 0.2 2
v 2 4 2
v -1.4 1.3 -0.7
v -1.4 1.8 -0.7
v -0.6 1.3 -0.7
v -0.6 1.8 -0.7
v 1.1 0.3 -0.7
v 1.1 0.6 -0.7
v 1.4 0.3 -0.7
v 1.4 0.6 -0.7
v -1.5 1.3 -0.8
v -1.5 2 -0.8
v -1.4 1.3 -0.8
v -1.4 1.8 -0.8
v -1.1 1.2 -0.8
v -1.1 1.3 -0.8
v -1.1 1.8 -0.8
v -1.1 2 -0.8
v -0.7 1.2 -0.8
v -0.7 1.3 -0.8
v 0.8 0.3 -0.8
v 0.8 0.5 -0.8
v 0.9 0.5 -0.8
v 0.9 0.7 -0.8
v 1.1 0.3 -0.8
v 1.1 0.6 -0.8
v 1.3 0.6 -0.8
v 1.3 0.7 -0.8
v -1.2 1.2 -0.9
v -1.2 1.3 -0.9
v -1.1 1.2 -0.9
v -1.1 1.3 -0.9
v -1.2 0.3 -1
v -1.2 1.2 -1
v -1.1 1.8 -1
v -1.1 1.9 -1
v -0.9 0.3 -1
v -0.9 1.2 -1
v -0.6 1.4 -1
v -0.6 1.8 -1
v -0.5 1.4 -1
v -0.5 1.9 -1
v 1.2 0.5 -1
v 1.2 0.6 -1
v 1.3 0.5 -1
v 1.3 0.6 -1
v -1.9 0.3 -1.9
v -1.9 4 -1.9
v -1.7 3.3 -1.9
v -1.7 3.5 -1.9
v -1.7 3.7 -1.9
v -1.7 3.9 -1.9
v -1.6 3.7 -1.9
v -1.6 3.9 -1.9
v -1.5 1.3 -1.9
v -1.5 2 -1.9
v -1.5 3.3 -1.9
v -1.5 3.5 -1.9
v -1.5 3.6 -1.9
v -1.5 3.8 -1.9
v -1.3 3.6 -1.9
v -1.3 3.8 -1.9
v -1.2 3.3 -1.9
v -1.2 3.5 -1.9
v -1.2 3.8 -1.9
v -1.2 3.9 -1.9
v -1.1 1.7 -1.9
v -1.1 2 -1.9
v -1 3.3 -1.9
v -1 3.5 -1.9
v -1 3.8 -1.9
v -1 3.9 -1.9
v -0.6 1.3 -1.9
v -0.6 1.7 -1.9
v 1.9 0.3 -1.9
v 1.9 4 -1.9
v 1.2 0.5 -0.9
v 1.2 0.6 -0.9
v 1.3 0.6 -0.9
v 1.4 0.5 -0.9
v 1.4 0.6 -0.9
v 0.8 0.3 -1
v 0.8 0.5 -1
v 0.9 0.3 -1
v 0.9 0.5 -1
v -0.9 1.2 -1.1
v -0.9 1.3 -1.1
v -0.7 1.2 -1.1
v -0.7 1.3 -1.1
v 0.9 0.6 -1.2
v 0.9 0.7 -1.2
v 1.3 0.4 -1.2
v 1.3 0.5 -1.2
v 1.3 0.6 -1.2
v 1.3 0.7 -1.2
v 1.4 0.4 -1.2
v 1.4 0.5 -1.2
v -1.2 0.3 -1.3
v -1.2 1.3 -1.3
v -0.9 0.3 -1.3
v -0.9 1.3 -1.3
v 0.9 0.3 -1.3
v 0.9 0.6 -1.3
v 1.3 0.4 -1.3
v 1.3 0.6 -1.3
v 1.4 0.3 -1.3
v 1.4 0.4 -1.3
v -1.1 1.7 -1.7
v -1.1 1.9 -1.7
v -0.6 1.4 -1.7
v -0.6 1.7 -1.7
v -0.5 1.4 -1.7
v -0.5 1.9 -1.7
v -2 0 -2
v -2 0.2 -2
v -2 4 -2
v -1.7 3.3 -2
v -1.7 3.5 -2
v -1.7 3.7 -2
v -1.7 3.9 -2
v -1.6 3.7 -2
v -1.6 3.9 -2
v -1.5 3.3 -2
v -1.5 3.5 -2
v -1.5 3.6 -2
v -1.5 3.8 -2
v -1.3 3.6 -2
v -1.3 3.8 -2
v -1.2 3.3 -2
v -1.2 3.5 -2
v -1.2 3.8 -2
v -1.2 3.9 -2
v -1 3.3 -2
v -1 3.5 -2
v -1 3.8 -2
v -1 3.9 -2
v 2 0 -2
v 2 0.2 -2
v 2 4 -2
v -2 0 2
v 2 0 2
v -2 0 -2
v 2 0 -2
v 1.2 0.6 -0.9
v 1.3 0.6 -0.9
v 1.2 0.6 -1
v 1.3 0.6 -1
v -1.1 1.2 -0.8
v -0.7 1.2 -0.8
v -1.2 1.2 -0.9
v -1.1 1.2 -0.9
v -1.2 1.2 -1
v -0.9 1.2 -1
v -0.9 1.2 -1.1
v -0.7 1.2 -1.1
v -1.4 1.3 -0.7
v -0.6 1.3 -0.7
v -1.5 1.3 -0.8
v -1.4 1.3 -0.8
v -1.1 1.3 -0.8
v -0.7 1.3 -0.8
v -1.2 1.3 -0.9
v -1.1 1.3 -0.9
v -1.2 1.3 -1
v -0.9 1.3 -1.1
v -0.7 1.3 -1.1
v -1.2 1.3 -1.3
v -0.9 1.3 -1.3
v -1.5 1.3 -1.9
v -0.6 1.3 -1.9
v -0.6 1.4 -1
v -0.5 1.4 -1
v -0.6 1.4 -1.7
v -0.5 1.4 -1.7
v -1.9 0.3 2
v 1.9 0.3 2
v 1.6 0.3 1.6
v 1.9 0.3 1.6
v 1.4 0.3 1.5
v 1.6 0.3 1.5
v 1.2 0.3 1.4
v 1.4 0.3 1.4
v 1 0.3 1.2
v 1.2 0.3 1.2
v -1.3 0.3 1
v -1 0.3 1
v -0.8 0.3 1
v -0.5 0.3 1
v -0.4 0.3 1
v -0.0999999 0.3 1
v 0.1 0.3 1
v 0.5 0.3 1
v -1.8 0.3 0.9
v -1.3 0.3 0.9
v -1 0.3 0.9
v -0.8 0.3 0.9
v -0.5 0.3 0.9
v -0.4 0.3 0.9
v -0.0999999 0.3 0.9
v 0.1 0.3 0.9
v -1.9 0.3 0.8
v -1.8 0.3 0.8
v 0.5 0.3 0.8
v 0.7 0.3 0.8
v 0.7 0.3 0.7
v 1 0.3 0.7
v 1.5 0.3 0.7
v 1.9 0.3 0.7
v 1.4 0.3 0.6
v 1.5 0.3 0.6
v -1.6 0.3 0.5
v -1.3 0.3 0.5
v -0.4 0.3 0.5
v -0.2 0.3 0.5
v 0.5 0.3 0.4
v 0.7 0.3 0.4
v 1.3 0.3 0.4
v 1.4 0.3 0.4
v -1.7 0.3 0.3
v -1.6 0.3 0.3
v -1.3 0.3 0.3
v -1.1 0.3 0.3
v -0.6 0.3 0.3
v -0.4 0.3 0.3
v 1.2 0.3 0.3
v 1.3 0.3 0.3
v -1.1 0.3 0.2
v -0.9 0.3 0.2
v 0.1 0.3 0.2
v 0.5 0.3 0.2
v 0.7 0.3 0.2
v 1.2 0.3 0.2
v -1.9 0.3 0.0999999
v -1.7 0.3 0.0999999
v -0.9 0.3 0.0999999
v -0.6 0.3 0.0999999
v -0.2 0.3 0.0999999
v 0.1 0.3 0.0999999
v 1.1 0.3 -0.7
v 1.4 0.3 -0.7
v 0.8 0.3 -0.8
v 1.1 0.3 -0.8
v -1.2 0.3 -1
v -0.9 0.3 -1
v 0.8 0.3 -1
v 0.9 0.3 -1
v -1.2 0.3 -1.3
v -0.9 0.3 -1.3
v 0.9 0.3 -1.3
v 1.4 0.3 -1.3
v -1.9 0.3 -1.9
v 1.9 0.3 -1.9
v 1.3 0.4 -1.2
v 1.4 0.4 -1.2
v 1.3 0.4 -1.3
v 1.4 0.4 -1.3
v 0.8 0.5 -0.8
v 0.9 0.5 -0.8
v 1.2 0.5 -0.9
v 1.4 0.5 -0.9
v 0.8 0.5 -1
v 0.9 0.5 -1
v 1.2 0.5 -1
v 1.3 0.5 -1
v 1.3 0.5 -1.2
v 1.4 0.5 -1.2
v 1.1 0.6 -0.7
v 1.4 0.6 -0.7
v 1.1 0.6 -0.8
v 1.3 0.6 -0.8
v 1.3 0.6 -0.9
v 1.4 0.6 -0.9
v 0.9 0.6 -1.2
v 1.3 0.6 -1.2
v 0.9 0.6 -1.3
v 1.3 0.6 -1.3
v 0.9 0.7 -0.8
v 1.3 0.7 -0.8
v 0.9 0.7 -1.2
v 1.3 0.7 -1.2
v -1.1 1.7 -1.7
v -0.6 1.7 -1.7
v -1.1 1.7 -1.9
v -0.6 1.7 -1.9
v -1.4 1.8 -0.7
v -0.6 1.8 -0.7
v -1.4 1.8 -0.8
v -1.1 1.8 -0.8
v -1.1 1.8 -1
v -0.6 1.8 -1
v -1.1 1.9 -1
v -0.5 1.9 -1
v -1.1 1.9 -1.7
v -0.5 1.9 -1.7
v -1.5 2 -0.8
v -1.1 2 -0.8
v -1.5 2 -1.9
v -1.1 2 -1.9
v -2 4 2
v -1.9 4 2
v 1.9 4 2
v 2 4 2
v -1.9 4 -1.9
v 1.9 4 -1.9
v -2 4 -2
v 2 4 -2

# faces
f 3/1/1 2/1/1 1/1/1
f 4/1/1 2/1/1 3/1/1
f 5/5/1 4/5/1 3/5/1
f 6/5/1 4/5/1 5/5/1
f 9/4/1 8/4/1 7/4/1
f 10/4/1 8/4/1 9/4/1
f 13/4/1 12/4/1 11/4/1
f 14/4/1 12/4/1 13/4/1
f 18/3/1 16/3/1 15/3/1
f 19/4/1 18/4/1 17/4/1
f 20/3/1 16/3/1 18/3/1
f 20/4/1 18/4/1 19/4/1
f 21/3/1 16/3/1 20/3/1
f 24/4/1 23/4/1 22/4/1
f 25/4/1 23/4/1 24/4/1
f 28/4/1 27/4/1 26/4/1
f 29/4/1 27/4/1 28/4/1
f 33/4/1 31/4/1 30/4/1
f 34/4/1 31/4/1 33/4/1
f 34/4/1 33/4/1 32/4/1
f 35/4/1 31/4/1 34/4/1
f 36/4/1 34/4/1 32/4/1
f 37/4/1 34/4/1 36/4/1
f 40/4/1 39/4/1 38/4/1
f 41/4/1 39/4/1 40/4/1
f 46/5/1 43/5/1 42/5/1
f 46/5/1 45/5/1 44/5/1
f 46/5/1 44/5/1 43/5/1
f 47/5/1 45/5/1 46/5/1
f 48/5/2 49/5/2 52/5/2
f 50/5/2 51/5/2 52/5/2
f 49/5/2 50/5/2 52/5/2
f 52/5/2 51/5/2 53/5/2
f 56/4/2 57/4/2 58/4/2
f 54/4/2 55/4/2 59/4/2
f 56/4/2 58/4/2 60/4/2
f 58/4/2 59/4/2 60/4/2
f 59/4/2 55/4/2 61/4/2
f 60/4/2 59/4/2 61/4/2
f 62/3/2 63/3/2 64/3/2
f 64/3/2 63/3/2 65/3/2
f 65/3/2 63/3/2 66/3/2
f 66/3/2 63/3/2 67/3/2
f 68/4/2 69/4/2 70/4/2
f 70/4/2 69/4/2 71/4/2
f 72/4/2 73/4/2 74/4/2
f 74/4/2 73/4/2 75/4/2
f 75/4/2 73/4/2 76/4/2
f 76/4/2 73/4/2 77/4/2
f 72/4/2 74/4/2 78/4/2
f 78/4/2 74/4/2 79/4/2
f 80/4/2 81/4/2 82/4/2
f 82/4/2 81/4/2 83/4/2
f 84/4/2 85/4/2 86/4/2
f 86/4/2 85/4/2 87/4/2
f 88/4/2 89/4/2 91/4/2
f 90/4/2 91/4/2 94/4/2
f 91/4/2 89/4/2 95/4/2
f 94/4/2 91/4/2 95/4/2
f 95/4/2 89/4/2 96/4/2
f 93/4/2 94/4/2 97/4/2
f 92/4/2 93/4/2 97/4/2
f 94/4/2 95/4/2 97/4/2
f 97/4/2 95/4/2 98/4/2
f 99/4/2 100/4/2 101/4/2
f 101/4/2 100/4/2 102/4/2
f 99/4/2 101/4/2 103/4/2
f 103/4/2 101/4/2 104/4/2
f 99/4/2 103/4/2 105/4/2
f 105/4/2 103/4/2 106/4/2
f 107/1/2 108/1/2 109/1/2
f 109/1/2 108/1/2 110/1/2
f 109/5/2 110/5/2 111/5/2
f 111/5/2 110/5/2 112/5/2
f 116/1/3 114/1/3 113/1/3
f 116/5/3 115/5/3 114/5/3
f 117/5/3 115/5/3 116/5/3
f 118/5/3 115/5/3 117/5/3
f 119/1/3 116/1/3 113/1/3
f 119/6/3 117/6/3 116/6/3
f 120/6/3 117/6/3 119/6/3
f 122/1/3 119/1/3 113/1/3
f 123/5/3 121/5/3 120/5/3
f 123/1/3 119/1/3 122/1/3
f 123/5/3 120/5/3 119/5/3
f 124/5/3 121/5/3 123/5/3
f 127/4/3 126/4/3 125/4/3
f 128/4/3 126/4/3 127/4/3
f 131/4/3 130/4/3 129/4/3
f 132/4/3 130/4/3 131/4/3
f 135/4/3 134/4/3 133/4/3
f 136/4/3 134/4/3 135/4/3
f 139/4/3 134/4/3 136/4/3
f 140/4/3 134/4/3 139/4/3
f 141/4/3 138/4/3 137/4/3
f 142/4/3 138/4/3 141/4/3
f 145/4/3 144/4/3 143/4/3
f 147/4/3 145/4/3 143/4/3
f 147/4/3 146/4/3 145/4/3
f 148/4/3 146/4/3 147/4/3
f 149/4/3 146/4/3 148/4/3
f 150/4/3 146/4/3 149/4/3
f 153/4/3 152/4/3 151/4/3
f 154/4/3 152/4/3 153/4/3
f 159/3/3 156/3/3 155/3/3
f 160/3/3 156/3/3 159/3/3
f 162/4/3 158/4/3 157/4/3
f 163/4/3 162/4/3 161/4/3
f 164/4/3 158/4/3 162/4/3
f 164/4/3 162/4/3 163/4/3
f 167/4/3 166/4/3 165/4/3
f 168/4/3 166/4/3 167/4/3
f 171/5/3 170/5/3 169/5/3
f 172/5/3 170/5/3 171/5/3
f 173/5/3 170/5/3 172/5/3
f 174/5/3 170/5/3 173/5/3
f 175/7/3 173/7/3 172/7/3
f 175/8/3 174/8/3 173/8/3
f 176/5/3 170/5/3 174/5/3
f 176/8/3 174/8/3 175/8/3
f 177/5/3 171/5/3 169/5/3
f 178/5/3 171/5/3 177/5/3
f 179/8/3 172/8/3 171/8/3
f 179/5/3 171/5/3 178/5/3
f 180/7/3 175/7/3 172/7/3
f 180/8/3 172/8/3 179/8/3
f 180/7/3 176/7/3 175/7/3
f 181/7/3 176/7/3 180/7/3
f 182/7/3 176/7/3 181/7/3
f 183/7/3 180/7/3 179/7/3
f 183/8/3 182/8/3 181/8/3
f 183/7/3 181/7/3 180/7/3
f 184/7/3 176/7/3 182/7/3
f 184/8/3 182/8/3 183/8/3
f 185/7/3 183/7/3 179/7/3
f 185/5/3 179/5/3 178/5/3
f 185/7/3 184/7/3 183/7/3
f 186/7/3 184/7/3 185/7/3
f 187/7/3 176/7/3 184/7/3
f 187/7/3 184/7/3 186/7/3
f 188/5/3 170/5/3 176/5/3
f 188/7/3 176/7/3 187/7/3
f 190/5/3 185/5/3 178/5/3
f 191/8/3 186/8/3 185/8/3
f 191/5/3 190/5/3 189/5/3
f 191/5/3 185/5/3 190/5/3
f 192/7/3 187/7/3 186/7/3
f 192/8/3 186/8/3 191/8/3
f 193/8/3 188/8/3 187/8/3
f 193/7/3 187/7/3 192/7/3
f 194/5/3 170/5/3 188/5/3
f 194/8/3 188/8/3 193/8/3
f 195/5/3 177/5/3 169/5/3
f 196/5/3 191/5/3 189/5/3
f 196/5/3 193/5/3 192/5/3
f 196/5/3 194/5/3 193/5/3
f 196/5/3 192/5/3 191/5/3
f 197/5/3 195/5/3 169/5/3
f 197/5/3 196/5/3 195/5/3
f 198/5/3 194/5/3 196/5/3
f 198/5/3 196/5/3 197/5/3
f 198/5/3 170/5/3 194/5/3
f 199/4/4 200/4/4 201/4/4
f 199/4/4 201/4/4 202/4/4
f 202/4/4 201/4/4 203/4/4
f 204/4/4 205/4/4 206/4/4
f 206/4/4 205/4/4 207/4/4
f 208/4/4 209/4/4 210/4/4
f 210/4/4 209/4/4 211/4/4
f 212/4/4 213/4/4 216/4/4
f 216/4/4 213/4/4 217/4/4
f 214/4/4 215/4/4 218/4/4
f 218/4/4 215/4/4 219/4/4
f 220/3/4 221/3/4 222/3/4
f 222/3/4 221/3/4 223/3/4
f 224/4/4 225/4/4 226/4/4
f 226/4/4 225/4/4 227/4/4
f 224/4/4 226/4/4 228/4/4
f 228/4/4 226/4/4 229/4/4
f 230/4/4 231/4/4 233/4/4
f 232/4/4 233/4/4 234/4/4
f 233/4/4 231/4/4 235/4/4
f 234/4/4 233/4/4 235/4/4
f 237/5/4 238/5/4 239/5/4
f 239/5/4 238/5/4 240/5/4
f 240/5/4 238/5/4 241/5/4
f 241/5/4 238/5/4 242/5/4
f 240/7/4 241/7/4 243/7/4
f 241/8/4 242/8/4 243/8/4
f 242/5/4 238/5/4 244/5/4
f 243/8/4 242/8/4 244/8/4
f 237/5/4 239/5/4 245/5/4
f 239/8/4 240/8/4 245/8/4
f 243/7/4 244/7/4 246/7/4
f 245/8/4 240/8/4 246/8/4
f 240/7/4 243/7/4 246/7/4
f 246/7/4 244/7/4 247/7/4
f 247/7/4 244/7/4 248/7/4
f 245/7/4 246/7/4 249/7/4
f 246/7/4 247/7/4 249/7/4
f 247/8/4 248/8/4 249/8/4
f 248/7/4 244/7/4 250/7/4
f 249/8/4 248/8/4 250/8/4
f 237/5/4 245/5/4 251/5/4
f 245/7/4 249/7/4 251/7/4
f 249/7/4 250/7/4 251/7/4
f 251/7/4 250/7/4 252/7/4
f 250/7/4 244/7/4 253/7/4
f 252/7/4 250/7/4 253/7/4
f 244/5/4 238/5/4 254/5/4
f 253/7/4 244/7/4 254/7/4
f 251/8/4 252/8/4 255/8/4
f 237/5/4 251/5/4 255/5/4
f 252/7/4 253/7/4 256/7/4
f 255/8/4 252/8/4 256/8/4
f 253/8/4 254/8/4 257/8/4
f 256/7/4 253/7/4 257/7/4
f 254/5/4 238/5/4 258/5/4
f 257/8/4 254/8/4 258/8/4
f 236/1/4 237/1/4 259/1/4
f 237/5/4 255/5/4 260/5/4
f 259/1/4 237/1/4 260/1/4
f 256/5/4 257/5/4 260/5/4
f 257/5/4 258/5/4 260/5/4
f 255/5/4 256/5/4 260/5/4
f 258/5/4 238/5/4 261/5/4
f 260/5/4 258/5/4 261/5/4
f 264/1/5 263/1/5 262/1/5
f 265/1/5 263/1/5 264/1/5
f 268/4/5 267/4/5 266/4/5
f 269/4/5 267/4/5 268/4/5
f 273/4/5 271/4/5 270/4/5
f 274/4/5 273/4/5 272/4/5
f 275/4/5 271/4/5 273/4/5
f 275/4/5 273/4/5 274/4/5
f 276/4/5 271/4/5 275/4/5
f 277/4/5 271/4/5 276/4/5
f 281/4/5 279/4/5 278/4/5
f 282/4/5 279/4/5 281/4/5
f 283/4/5 279/4/5 282/4/5
f 284/4/5 281/4/5 280/4/5
f 284/4/5 282/4/5 281/4/5
f 285/4/5 282/4/5 284/4/5
f 286/4/5 284/4/5 280/4/5
f 288/4/5 279/4/5 283/4/5
f 289/4/5 286/4/5 280/4/5
f 290/4/5 288/4/5 287/4/5
f 291/4/5 289/4/5 280/4/5
f 291/4/5 290/4/5 289/4/5
f 292/4/5 288/4/5 290/4/5
f 292/4/5 290/4/5 291/4/5
f 292/4/5 279/4/5 288/4/5
f 295/4/5 294/4/5 293/4/5
f 296/4/5 294/4/5 295/4/5
f 297/6/6 298/6/6 299/6/6
f 299/6/6 298/6/6 300/6/6
f 297/6/6 299/6/6 301/6/6
f 299/2/6 300/2/6 302/2/6
f 301/6/6 299/6/6 302/6/6
f 297/6/6 301/6/6 303/6/6
f 301/2/6 302/2/6 304/2/6
f 303/6/6 301/6/6 304/6/6
f 297/6/6 303/6/6 305/6/6
f 303/2/6 304/2/6 306/2/6
f 305/6/6 303/6/6 306/6/6
f 297/6/6 305/6/6 307/6/6
f 307/6/6 305/6/6 308/6/6
f 308/6/6 305/6/6 309/6/6
f 309/6/6 305/6/6 310/6/6
f 310/6/6 305/6/6 311/6/6
f 311/6/6 305/6/6 312/6/6
f 312/6/6 305/6/6 313/6/6
f 313/6/6 305/6/6 314/6/6
f 297/6/6 307/6/6 315/6/6
f 307/2/6 308/2/6 316/2/6
f 315/6/6 307/6/6 316/6/6
f 308/6/6 309/6/6 317/6/6
f 316/2/6 308/2/6 317/2/6
f 309/2/6 310/2/6 318/2/6
f 317/6/6 309/6/6 318/6/6
f 310/6/6 311/6/6 319/6/6
f 318/2/6 310/2/6 319/2/6
f 311/2/6 312/2/6 320/2/6
f 319/6/6 311/6/6 320/6/6
f 312/6/6 313/6/6 321/6/6
f 320/2/6 312/2/6 321/2/6
f 313/2/6 314/2/6 322/2/6
f 321/6/6 313/6/6 322/6/6
f 297/6/6 315/6/6 323/6/6
f 315/2/6 316/2/6 324/2/6
f 323/6/6 315/6/6 324/6/6
f 316/2/6 317/2/6 324/2/6
f 321/2/6 322/2/6 324/2/6
f 320/2/6 321/2/6 324/2/6
f 319/2/6 320/2/6 324/2/6
f 318/2/6 319/2/6 324/2/6
f 317/2/6 318/2/6 324/2/6
f 314/6/6 305/6/6 325/6/6
f 324/2/6 322/2/6 325/2/6
f 322/2/6 314/2/6 325/2/6
f 325/6/6 305/6/6 326/6/6
f 323/2/6 324/2/6 327/2/6
f 326/6/6 305/6/6 327/6/6
f 325/2/6 326/2/6 327/2/6
f 324/2/6 325/2/6 327/2/6
f 305/2/6 306/2/6 328/2/6
f 327/6/6 305/6/6 328/6/6
f 304/2/6 302/2/6 329/2/6
f 328/2/6 306/2/6 329/2/6
f 306/2/6 304/2/6 329/2/6
f 302/2/6 300/2/6 330/2/6
f 329/2/6 302/2/6 330/2/6
f 328/2/6 329/2/6 331/2/6
f 327/2/6 328/2/6 331/2/6
f 329/6/6 330/6/6 332/6/6
f 331/2/6 329/2/6 332/2/6
f 327/2/6 331/2/6 333/2/6
f 323/2/6 327/2/6 333/2/6
f 333/2/6 331/2/6 334/2/6
f 334/2/6 331/2/6 335/2/6
f 335/2/6 331/2/6 336/2/6
f 336/2/6 331/2/6 337/2/6
f 337/2/6 331/2/6 338/2/6
f 338/2/6 331/2/6 339/2/6
f 331/6/6 332/6/6 340/6/6
f 339/2/6 331/2/6 340/2/6
f 323/2/6 333/2/6 341/2/6
f 333/6/6 334/6/6 342/6/6
f 341/2/6 333/2/6 342/2/6
f 334/2/6 335/2/6 343/2/6
f 342/6/6 334/6/6 343/6/6
f 343/2/6 335/2/6 344/2/6
f 344/2/6 335/2/6 345/2/6
f 335/6/6 336/6/6 346/6/6
f 345/2/6 335/2/6 346/2/6
f 338/2/6 339/2/6 347/2/6
f 339/6/6 340/6/6 348/6/6
f 347/2/6 339/2/6 348/2/6
f 341/6/6 342/6/6 349/6/6
f 344/2/6 345/2/6 349/2/6
f 342/6/6 343/6/6 349/6/6
f 343/6/6 344/6/6 349/6/6
f 349/2/6 345/2/6 350/2/6
f 336/2/6 337/2/6 351/2/6
f 337/6/6 338/6/6 352/6/6
f 351/2/6 337/2/6 352/2/6
f 338/2/6 347/2/6 353/2/6
f 352/6/6 338/6/6 353/6/6
f 347/6/6 348/6/6 354/6/6
f 353/2/6 347/2/6 354/2/6
f 323/2/6 341/2/6 355/2/6
f 341/6/6 349/6/6 356/6/6
f 355/2/6 341/2/6 356/2/6
f 349/6/6 350/6/6 356/6/6
f 350/2/6 345/2/6 357/2/6
f 356/6/6 350/6/6 357/6/6
f 345/6/6 346/6/6 358/6/6
f 357/2/6 345/2/6 358/2/6
f 346/6/6 336/6/6 359/6/6
f 358/6/6 346/6/6 359/6/6
f 336/2/6 351/2/6 359/2/6
f 352/6/6 353/6/6 360/6/6
f 359/2/6 351/2/6 360/2/6
f 353/6/6 354/6/6 360/6/6
f 351/6/6 352/6/6 360/6/6
f 357/6/6 358/6/6 361/6/6
f 360/6/6 354/6/6 361/6/6
f 359/6/6 360/6/6 361/6/6
f 356/6/6 357/6/6 361/6/6
f 358/6/6 359/6/6 361/6/6
f 355/6/6 356/6/6 361/6/6
f 340/6/6 332/6/6 362/6/6
f 361/6/6 354/6/6 362/6/6
f 354/6/6 348/6/6 362/6/6
f 348/6/6 340/6/6 362/6/6
f 355/6/6 361/6/6 363/6/6
f 363/6/6 361/6/6 364/6/6
f 355/6/6 363/6/6 365/6/6
f 365/6/6 363/6/6 366/6/6
f 366/6/6 363/6/6 367/6/6
f 355/6/6 365/6/6 369/6/6
f 367/6/6 368/6/6 370/6/6
f 366/6/6 367/6/6 370/6/6
f 370/6/6 368/6/6 371/6/6
f 362/6/6 332/6/6 372/6/6
f 370/6/6 371/6/6 373/6/6
f 371/6/6 372/6/6 373/6/6
f 369/6/6 370/6/6 373/6/6
f 355/6/6 369/6/6 373/6/6
f 332/6/6 330/6/6 374/6/6
f 373/6/6 372/6/6 374/6/6
f 372/6/6 332/6/6 374/6/6
f 375/4/6 376/4/6 377/4/6
f 377/4/6 376/4/6 378/4/6
f 379/4/6 380/4/6 383/4/6
f 383/4/6 380/4/6 384/4/6
f 381/4/6 382/4/6 385/4/6
f 385/4/6 382/4/6 386/4/6
f 386/4/6 382/4/6 387/4/6
f 387/4/6 382/4/6 388/4/6
f 389/4/6 390/4/6 391/4/6
f 391/4/6 390/4/6 392/4/6
f 392/4/6 390/4/6 393/4/6
f 393/4/6 390/4/6 394/4/6
f 395/4/6 396/4/6 397/4/6
f 397/4/6 396/4/6 398/4/6
f 399/4/6 400/4/6 401/4/6
f 401/4/6 400/4/6 402/4/6
f 403/4/6 404/4/6 405/4/6
f 405/4/6 404/4/6 406/4/6
f 407/4/6 408/4/6 409/4/6
f 409/4/6 408/4/6 410/4/6
f 410/4/6 408/4/6 411/4/6
f 411/4/6 408/4/6 412/4/6
f 413/4/6 414/4/6 415/4/6
f 415/4/6 414/4/6 416/4/6
f 417/4/6 418/4/6 419/4/6
f 419/4/6 418/4/6 420/4/6
f 421/5/6 422/5/6 425/5/6
f 423/5/6 424/5/6 426/5/6
f 421/5/6 425/5/6 427/5/6
f 425/5/6 426/5/6 427/5/6
f 426/5/6 424/5/6 428/5/6
f 427/5/6 426/5/6 428/5/6
